<svg xmlns="http://www.w3.org/2000/svg" version="1.1" xmlns:xlink="http://www.w3.org/1999/xlink" xmlns:svgjs="http://svgjs.dev/svgjs" width="100%" height="100%" viewBox="0 0 1000 600"><rect width="1000" height="600" x="0" y="0" fill="#6b8e23"/><g><rect width="333.3333333333333" height="333.3333333333333" y="277.2845079800601" fill="#556b2f" transform="matrix(0.49007640095335364,0,0,0.4900764009533536,0,82.43001024765967)" x="255.06233215332037"/><path d="M362.1578274776377 444.2553984884144L362.1578274776377 444.2553984884144Q388.6693184324511 386.88627052062145 388.6693184324511 374.369369873103L388.6693184324511 374.369369873103L388.6693184324511 370.83450441246123L412.8628648229093 370.83450441246123L412.8628648229093 372.92065452038094Q404.3154442418492 379.17910484414017 369.2565327059757 456.3666588371707L369.2565327059757 456.3666588371707L369.2565327059757 473.0558597005287Q369.2565327059757 480.3573850782478 370.21268483877225 495.36607613244814Q371.1398626645144 510.403741493703 372.18293771847425 515.4162966141213L372.18293771847425 515.4162966141213L372.18293771847425 516.8650119668433L345.46862661427974 516.8650119668433L345.46862661427974 515.4162966141213Q348.39503162677823 502.6676015101673 348.39503162677823 478.6768752690902L348.39503162677823 478.6768752690902L348.39503162677823 455.72922408197303L328.3737854521596 416.3241664879334Q307.71510452234327 376.89013458683934 301.2538340492029 372.92065452038094L301.2538340492029 372.92065452038094L301.2538340492029 370.83450441246123L332.14044536923694 370.83450441246123L332.14044536923694 374.369369873103Q332.14044536923694 382.5111501554009 338.92043321997613 397.11420091083914Q345.70042107071527 411.7172516662773 349.032466381976 418.81595689461534Q352.3645116932367 425.91466212295336 353.2047665978154 427.3633774756754L353.2047665978154 427.3633774756754Q355.89937715387845 431.5356776915149 362.1578274776377 444.2553984884144ZM447.08152145420394 515.4162966141213L447.08152145420394 516.8650119668433L426.0172002256254 516.8650119668433L426.0172002256254 515.4162966141213Q429.146425387505 501.6245264562074 429.146425387505 467.0002295261505L429.146425387505 467.0002295261505L429.146425387505 420.2646722473374Q429.146425387505 388.1611400310169 426.4228405243876 372.2832197651833L426.4228405243876 372.2832197651833L426.4228405243876 370.83450441246123L451.6594619688056 368.9511744539226L524.6747157459965 482.44353518616754L524.6747157459965 414.64365667877587Q524.6747157459965 403.5754713839794 523.4288205426556 390.537033209481Q522.1829253393148 377.4985950349826 520.299595380776 372.2832197651833L520.299595380776 372.2832197651833L520.299595380776 370.83450441246123L542.2041715139333 370.83450441246123L542.2041715139333 372.2832197651833Q539.0749463520538 386.0749899230971 539.0749463520538 420.699286853154L539.0749463520538 420.699286853154L539.0749463520538 473.0558597005287Q539.0749463520538 485.57276034804715 540.0021241777958 499.8570937258865Q540.9582763105925 514.1414271037258 541.7985312151711 516.8650119668433L541.7985312151711 516.8650119668433L522.1829253393148 518.951162074763L443.31486153712666 396.911380761458L443.31486153712666 473.0558597005287Q443.31486153712666 500.81324585868305 447.08152145420394 515.4162966141213L447.08152145420394 515.4162966141213Z " fill="white" transform="matrix(0.49007640095335364,0,0,0.4900764009533536,0,82.43001024765967)"/><path d="M729.2759970288581 447.5786587763488L729.2759970288581 447.5786587763488Q754.326188251086 393.37168760693766 754.326188251086 381.54471207906613L754.326188251086 381.54471207906613L754.326188251086 378.2046865827691L777.1861988200044 378.2046865827691L777.1861988200044 380.1758491707477Q769.1099076609255 386.08933693468344 735.9834252796187 459.02235268989114L735.9834252796187 459.02235268989114L735.9834252796187 474.79165339371986Q735.9834252796187 481.6907224516449 736.8868747991088 495.8721421818242Q737.7629470604327 510.0809391701698 738.7485283544219 514.8172048329517L738.7485283544219 514.8172048329517L738.7485283544219 516.1860677412701L713.5066963250296 516.1860677412701L713.5066963250296 514.8172048329517Q716.2717993998327 502.7712112397492 716.2717993998327 480.10284147799547L716.2717993998327 480.10284147799547L716.2717993998327 458.420053010231L697.3541140068716 421.18698190396884Q677.8341289342503 383.9265335395403 671.72900036315 380.1758491707477L671.72900036315 380.1758491707477L671.72900036315 378.2046865827691L700.9131575684996 378.2046865827691L700.9131575684996 381.54471207906613Q700.9131575684996 389.2377216238159 707.3194359794301 403.035859739666Q713.7257143903604 416.83399785551615 716.8740990794929 423.54142610627656Q720.0224837686254 430.24885435703703 720.8164242554501 431.6177172653555L720.8164242554501 431.6177172653555Q723.3625092649224 435.5600424413127 729.2759970288581 447.5786587763488ZM832.5703920905694 495.2972197603304L832.5703920905694 476.7628159816984Q824.4941009314905 473.8060720997305 813.9538565374382 473.8060720997305Q803.4136121433861 473.8060720997305 798.6773464806042 477.1460975960276L798.6773464806042 477.1460975960276Q795.7206025986363 481.6907224516449 795.7206025986363 489.2742229637292Q795.7206025986363 496.8577234758135 799.8545685817581 501.2107075242662Q803.9885345648798 505.5363143145525 810.2031721686457 505.5363143145525Q816.4178097724115 505.5363143145525 822.906219957841 502.27842059275457Q829.4220074014369 499.047904129123 832.5703920905694 495.2972197603304L832.5703920905694 495.2972197603304ZM835.7187767797019 505.1530327002233L835.7187767797019 505.1530327002233Q823.7001604446658 518.3488711364133 808.6152911949963 518.3488711364133Q793.5577992034932 518.3488711364133 784.9613401392533 511.8604609509838Q776.3922583331797 505.34467350738794 776.3922583331797 490.8621039373786Q776.3922583331797 476.3795343673693 786.5492211129027 470.0553877309379Q796.7061838926256 463.758618352673 815.2405876712577 463.758618352673L815.2405876712577 463.758618352673L832.5703920905694 464.33354077416675L832.5703920905694 453.1088649259554Q832.5703920905694 442.6507523064023 827.4508448134583 436.1623421209728Q822.3312975363473 429.6465546773769 811.8731849167942 429.6465546773769L811.8731849167942 429.6465546773769Q804.1801753720445 429.83819548454153 787.2336525670619 444.43027408721633L787.2336525670619 444.43027408721633Q781.5118056102907 437.1479234149621 779.157361407983 425.5125886942552L779.157361407983 425.5125886942552Q798.6773464806042 419.21581931599025 815.0215696059266 419.21581931599025Q831.3931699894155 419.21581931599025 841.2489829293085 427.6753920893984Q851.1047958692014 436.1623421209728 851.1047958692014 451.7400020176369L851.1047958692014 451.7400020176369L851.1047958692014 484.83910714077734Q851.2964366763659 493.709338786681 853.9520307185038 501.2928392987653Q856.635002018808 508.90371706901595 860.9606088090943 511.8604609509838L860.9606088090943 511.8604609509838L861.3438904234234 513.8316235389624L840.2634016353192 518.9511708160735Q837.6899393676805 512.6270241796421 835.7187767797019 505.1530327002233ZM963.84434499831 452.9172241187908L963.84434499831 452.9172241187908L963.84434499831 488.58979150957Q963.84434499831 504.35909221339864 966.8010888802779 514.8172048329517L966.8010888802779 514.8172048329517L966.8010888802779 516.1860677412701L942.3805745958765 516.1860677412701L942.3805745958765 514.8172048329517Q945.3373184778444 504.35909221339864 945.3373184778444 488.58979150957L945.3373184778444 488.58979150957L945.3373184778444 457.05119010191254Q945.3373184778444 445.82651425370113 942.3805745958765 440.5974579439246Q939.4238307139086 435.3684016341481 930.5535990680049 435.3684016341481Q921.6833674221014 435.3684016341481 906.6806299469309 445.41585538120563L906.6806299469309 445.41585538120563L906.6806299469309 482.6763037456342Q906.6806299469309 501.7856299457599 912.4024769037021 514.8172048329517L912.4024769037021 514.8172048329517L912.4024769037021 516.1860677412701L884.8062006720019 516.1860677412701L884.8062006720019 514.8172048329517Q888.1736034264653 504.96139189305876 888.1736034264653 488.58979150957L888.1736034264653 488.58979150957L888.1736034264653 455.08002751393394Q888.1736034264653 446.5930774823595 884.7240688975028 438.43465454878145Q881.2745343685402 430.24885435703703 876.729909512923 427.48375128223375L876.729909512923 427.48375128223375L876.5382687057585 425.12930707992604L902.3550231566446 418.9968012506593L903.5322452577985 420.9679638386379Q905.1201262314479 428.2776917690585 905.9140667182726 435.75168324847726L905.9140667182726 435.75168324847726Q913.0047765833623 429.6465546773769 916.0436522398293 427.1826014424037Q919.1099051544626 424.7186482074305 924.7222430785683 421.95354513262714Q930.334581002674 419.21581931599025 935.2624874726205 419.21581931599025L935.2624874726205 419.21581931599025Q955.5764130320664 419.21581931599025 961.4899007960022 436.73726454246656L961.4899007960022 436.73726454246656Q981.8038263554482 419.21581931599025 993.2201430108241 419.21581931599025L993.2201430108241 419.21581931599025Q1007.0182811266742 419.21581931599025 1014.7112906714241 428.2776917690585Q1022.4043002161737 437.3395642221267 1022.4043002161737 454.28608702710926L1022.4043002161737 454.28608702710926L1022.4043002161737 482.6763037456342Q1022.4043002161737 501.40234833143074 1028.3177879801096 514.8172048329517L1028.3177879801096 514.8172048329517L1028.3177879801096 516.1860677412701L1000.5298709412448 516.1860677412701L1000.5298709412448 514.8172048329517Q1003.8698964375418 504.96139189305876 1003.8698964375418 488.58979150957L1003.8698964375418 488.58979150957L1003.8698964375418 458.420053010231Q1003.8698964375418 435.3684016341481 989.4694586420316 435.3684016341481L989.4694586420316 435.3684016341481Q977.4508423069955 435.3684016341481 963.4610633839808 445.6074961883702L963.4610633839808 445.6074961883702Q963.84434499831 450.34376185115207 963.84434499831 452.9172241187908ZM1058.2685084141176 488.78143231673454L1058.2685084141176 488.78143231673454L1058.2685084141176 450.5354026583167Q1058.2685084141176 433.01395743184037 1048.4126954742246 426.1148883739153L1048.4126954742246 426.1148883739153L1048.4126954742246 423.7330669134412L1076.2006125130893 418.9968012506593L1077.4052118724094 420.9679638386379Q1076.8029121927493 426.6898107954091 1076.8029121927493 437.3395642221267L1076.8029121927493 437.3395642221267L1076.8029121927493 483.85352584678805Q1076.8029121927493 503.56515172657396 1081.730818662696 514.8172048329517L1081.730818662696 514.8172048329517L1081.730818662696 516.1860677412701L1055.1201237249852 516.1860677412701L1055.1201237249852 514.8172048329517Q1058.2685084141176 505.5363143145525 1058.2685084141176 488.78143231673454ZM1074.8317496047707 376.6168056091197L1074.8317496047707 376.6168056091197Q1077.596852679574 378.9986270695938 1077.596852679574 388.06049952266204L1077.596852679574 388.06049952266204Q1077.596852679574 390.2233029178052 1077.4052118724094 392.0028246986192L1077.4052118724094 392.0028246986192L1075.8173308987602 393.37168760693766Q1067.9326805468459 395.5618682602472 1057.0912863129638 396.5474495542365L1057.0912863129638 396.5474495542365L1055.3117645321495 395.75350906741176Q1052.3550206501818 390.63396179030076 1052.3550206501818 382.1470117587263L1052.3550206501818 382.1470117587263Q1052.3550206501818 381.161430464737 1052.3550206501818 380.1758491707477L1052.3550206501818 380.1758491707477L1053.942901623831 378.80698626242923Q1063.3880556912286 375.6312243151304 1072.0666465299678 375.6312243151304L1072.0666465299678 375.6312243151304Q1073.0522278239569 375.6312243151304 1074.8317496047707 376.6168056091197ZM1132.378746270479 513.8316235389624L1132.378746270479 516.1860677412701L1106.9726506920883 516.1860677412701L1106.9726506920883 513.8316235389624Q1110.3126761883855 503.97581059906946 1110.3126761883855 482.6763037456342L1110.3126761883855 482.6763037456342L1110.3126761883855 400.4897747301937Q1110.3126761883855 384.72047402636497 1101.2508037353173 376.0418831876259L1101.2508037353173 376.0418831876259L1101.2508037353173 373.6600617271518L1128.2447802873571 368.9511733225363L1129.4220023885114 370.9223359105149Q1128.8470799670172 376.6168056091197 1128.8470799670172 408.7577066964372L1128.8470799670172 408.7577066964372L1129.038720774182 482.6763037456342Q1129.038720774182 503.97581059906946 1132.378746270479 513.8316235389624L1132.378746270479 513.8316235389624ZM1184.422914044747 513.8316235389624L1184.422914044747 516.1860677412701L1158.9894412081899 516.1860677412701L1158.9894412081899 513.8316235389624Q1162.3568439626533 503.97581059906946 1162.3568439626533 482.6763037456342L1162.3568439626533 482.6763037456342L1162.3568439626533 400.4897747301937Q1162.3568439626533 384.72047402636497 1153.2949715095851 376.0418831876259L1153.2949715095851 376.0418831876259L1153.2949715095851 373.6600617271518L1180.2889480616254 368.9511733225363L1181.4661701627792 370.9223359105149Q1180.8912477412855 376.6168056091197 1180.8912477412855 408.7577066964372L1180.8912477412855 408.7577066964372L1181.0828885484498 482.6763037456342Q1181.0828885484498 503.97581059906946 1184.422914044747 513.8316235389624L1184.422914044747 513.8316235389624ZM1248.102416539722 518.3488711364133L1248.102416539722 518.3488711364133Q1227.4052093659466 518.3488711364133 1215.7698746452397 505.5363143145525Q1204.1345399245329 492.7237574926917 1204.1345399245329 471.7254004790865Q1204.1345399245329 450.7544207236476 1217.1387375535583 434.98512001981896Q1230.17031244075 419.21581931599025 1249.4712794480401 419.21581931599025L1249.4712794480401 419.21581931599025Q1284.7605652244902 419.21581931599025 1284.7605652244902 462.7730370586837L1284.7605652244902 462.7730370586837L1277.4782145522363 469.86374692377336L1225.0233879054726 469.86374692377336Q1225.0233879054726 486.42698811442676 1232.1414750287286 494.6949200806703Q1239.2321848938182 502.99022930508016 1251.2508012288545 502.99022930508016L1251.2508012288545 502.99022930508016Q1255.9870668916365 502.99022930508016 1264.6656577303752 500.1156171976114Q1273.316871310948 497.26838234830905 1280.0242995617086 493.32605717235185L1280.0242995617086 493.32605717235185L1284.952206031655 500.8000486517706Q1281.2015216628624 504.55073302056326 1268.6901146808314 511.4498020784883Q1256.1787076988007 518.3488711364133 1248.102416539722 518.3488711364133ZM1245.9396131445787 429.0716322558832L1245.9396131445787 429.0716322558832Q1237.644303920169 429.0716322558832 1233.1270563227176 432.7949393665094L1233.1270563227176 432.7949393665094Q1229.3763719539252 437.94186390178686 1227.2135685587823 445.82651425370113Q1225.0233879054726 453.7111646056155 1225.0233879054726 459.6246523695513L1225.0233879054726 459.6246523695513L1265.4322209590337 458.03677139590184Q1265.4322209590337 429.0716322558832 1245.9396131445787 429.0716322558832ZM1371.3000782883837 514.8172048329517L1371.3000782883837 516.1860677412701L1351.396811601433 516.1860677412701L1351.396811601433 514.8172048329517Q1354.3535554834011 501.7856299457599 1354.3535554834011 469.0698064369487L1354.3535554834011 469.0698064369487L1354.3535554834011 424.91028901459504Q1354.3535554834011 394.5762869662579 1351.780093215762 379.57354949108753L1351.780093215762 379.57354949108753L1351.780093215762 378.2046865827691L1375.62568507867 376.42516480195513L1444.6163756579203 483.6618850396235L1444.6163756579203 419.5991009303194Q1444.6163756579203 409.1409883107664 1443.4391535567665 396.8212221359002Q1442.2619314556127 384.501455961034 1440.4824096747989 379.57354949108753L1440.4824096747989 379.57354949108753L1440.4824096747989 378.2046865827691L1461.179616848574 378.2046865827691L1461.179616848574 379.57354949108753Q1458.2228729666058 392.60512437827936 1458.2228729666058 425.3209478870906L1458.2228729666058 425.3209478870906L1458.2228729666058 474.79165339371986Q1458.2228729666058 486.6186289215914 1459.0989452279296 500.1156171976114Q1460.00239474742 513.6126054736314 1460.7963352342445 516.1860677412701L1460.7963352342445 516.1860677412701L1442.2619314556127 518.1572303292487L1367.7410347267555 402.84421893250146L1367.7410347267555 474.79165339371986Q1367.7410347267555 501.0190667171016 1371.3000782883837 514.8172048329517L1371.3000782883837 514.8172048329517ZM1523.6545199842285 518.3488711364133L1523.6545199842285 518.3488711364133Q1507.1186560517413 518.3488711364133 1500.49335957548 509.7797893303397Q1493.8954403573853 501.2107075242662 1493.8954403573853 483.2786034252943L1493.8954403573853 483.2786034252943L1493.8954403573853 455.08002751393394Q1493.8954403573853 436.3539829281374 1487.981952593449 422.93912642661644L1487.981952593449 422.93912642661644L1487.981952593449 421.570263518298L1515.386588017985 421.570263518298L1515.386588017985 422.93912642661644Q1512.429844136017 433.39723904616955 1512.429844136017 449.1665397499982L1512.429844136017 449.1665397499982L1512.429844136017 480.10284147799547Q1512.429844136017 491.929817005867 1515.386588017985 497.07674154114443Q1518.3433318999528 502.1962888182554 1529.787025813495 502.1962888182554Q1541.2033424688711 502.1962888182554 1556.589361558371 491.35489458437326L1556.589361558371 491.35489458437326L1556.589361558371 455.08002751393394Q1556.589361558371 435.97070131380826 1550.8675146015994 422.93912642661644L1550.8675146015994 422.93912642661644L1550.8675146015994 421.570263518298L1578.0805092189703 421.570263518298L1578.0805092189703 422.93912642661644Q1575.1237653370026 433.39723904616955 1575.1237653370026 449.1665397499982L1575.1237653370026 449.1665397499982L1575.1237653370026 482.48466293846957Q1575.1237653370026 491.16325377720864 1578.0805092189703 499.5406947761177Q1581.0372531009384 507.9181357750266 1584.9795782768956 510.65586159166355L1584.9795782768956 510.65586159166355L1585.1712190840599 513.0376830521377L1562.092190449811 518.5405119435779Q1558.7521649535138 509.4786394905097 1557.3833020451953 501.2107075242662L1557.3833020451953 501.2107075242662Q1547.719129912467 509.4786394905097 1539.8344795605526 513.9137553134615Q1531.9498292086382 518.3488711364133 1523.6545199842285 518.3488711364133ZM1635.6275058846786 432.6032985593448L1635.6275058846786 494.11999765917653Q1635.6275058846786 504.55073302056326 1641.9242752629434 504.55073302056326L1641.9242752629434 504.55073302056326Q1647.2628406053855 504.55073302056326 1659.8837566200818 498.2539636422983L1659.8837566200818 498.2539636422983L1664.0177226032038 505.1530327002233Q1657.6935759667722 509.4786394905097 1648.248421899375 513.9137553134615Q1638.775890573811 518.3488711364133 1630.8912402218966 518.3488711364133Q1623.0065898699822 518.3488711364133 1620.0498459880146 513.4209646664668Q1617.093102106047 508.4930581965204 1617.093102106047 499.2395449362876L1617.093102106047 499.2395449362876L1617.093102106047 432.7949393665094L1599.3526388142395 433.7805206604987L1604.0889044770215 420.9679638386379Q1607.6479480386492 421.3786227111334 1616.7098204917174 421.7619043254626L1616.7098204917174 421.7619043254626Q1616.299161619222 411.90609138556965 1615.5325983905636 404.0214410336553L1615.5325983905636 404.0214410336553L1635.6275058846786 398.90189375654427L1635.6275058846786 421.570263518298Q1646.2772593113964 421.18698190396884 1664.592645024697 419.21581931599025L1664.592645024697 419.21581931599025L1659.089816133257 434.5744611473234Q1648.4400627065397 433.01395743184037 1635.6275058846786 432.6032985593448L1635.6275058846786 432.6032985593448ZM1735.171216577597 419.21581931599025L1735.171216577597 419.21581931599025Q1741.2763451486976 419.21581931599025 1744.2330890306653 420.5846822243087L1744.2330890306653 420.5846822243087Q1744.2330890306653 421.7619043254626 1744.2330890306653 422.93912642661644L1744.2330890306653 422.93912642661644Q1744.2330890306653 434.5744611473234 1740.7014227272039 444.04699247288715L1740.7014227272039 444.04699247288715Q1731.8311910813004 438.325145516116 1720.579137974922 438.325145516116L1720.579137974922 438.325145516116Q1714.474009403822 438.325145516116 1708.368880832722 440.48794891125914L1708.368880832722 440.48794891125914L1708.368880832722 482.6763037456342Q1708.368880832722 501.7856299457599 1714.090727789493 514.8172048329517L1714.090727789493 514.8172048329517L1714.090727789493 516.1860677412701L1686.4944515577927 516.1860677412701L1686.4944515577927 514.8172048329517Q1689.8344770540898 504.96139189305876 1689.8344770540898 488.58979150957L1689.8344770540898 488.58979150957L1689.8344770540898 455.08002751393394Q1689.8344770540898 446.5930774823595 1686.3849425251274 438.43465454878145Q1682.935407996165 430.24885435703703 1678.3907831405477 427.48375128223375L1678.3907831405477 427.48375128223375L1678.199142333383 425.12930707992604L1701.4698117747967 418.9968012506593Q1704.618196463929 424.3353665931013 1706.5893590519076 431.42607645819095L1706.5893590519076 431.42607645819095Q1718.4163345797792 419.21581931599025 1735.171216577597 419.21581931599025ZM1761.9735523224726 488.78143231673454L1761.9735523224726 488.78143231673454L1761.9735523224726 450.5354026583167Q1761.9735523224726 433.01395743184037 1752.1177393825797 426.1148883739153L1752.1177393825797 426.1148883739153L1752.1177393825797 423.7330669134412L1779.9056564214447 418.9968012506593L1781.1102557807649 420.9679638386379Q1780.5079561011048 426.6898107954091 1780.5079561011048 437.3395642221267L1780.5079561011048 437.3395642221267L1780.5079561011048 483.85352584678805Q1780.5079561011048 503.56515172657396 1785.435862571051 514.8172048329517L1785.435862571051 514.8172048329517L1785.435862571051 516.1860677412701L1758.8251676333402 516.1860677412701L1758.8251676333402 514.8172048329517Q1761.9735523224726 505.5363143145525 1761.9735523224726 488.78143231673454ZM1778.5367935131262 376.6168056091197L1778.5367935131262 376.6168056091197Q1781.3018965879296 378.9986270695938 1781.3018965879296 388.06049952266204L1781.3018965879296 388.06049952266204Q1781.3018965879296 390.2233029178052 1781.1102557807649 392.0028246986192L1781.1102557807649 392.0028246986192L1779.5223748071153 393.37168760693766Q1771.6377244552014 395.5618682602472 1760.7963302213188 396.5474495542365L1760.7963302213188 396.5474495542365L1759.016808440505 395.75350906741176Q1756.0600645585369 390.63396179030076 1756.0600645585369 382.1470117587263L1756.0600645585369 382.1470117587263Q1756.0600645585369 381.161430464737 1756.0600645585369 380.1758491707477L1756.0600645585369 380.1758491707477L1757.6479455321864 378.80698626242923Q1767.0930995995836 375.6312243151304 1775.7716904383228 375.6312243151304L1775.7716904383228 375.6312243151304Q1776.7572717323123 375.6312243151304 1778.5367935131262 376.6168056091197Z " fill="BlackBold" transform="matrix(0.49007640095335364,0,0,0.4900764009533536,0,82.43001024765967)"/></g></svg>