<?xml version="1.0" standalone="no"?>
<!DOCTYPE svg PUBLIC "-//W3C//DTD SVG 20010904//EN"
 "http://www.w3.org/TR/2001/REC-SVG-20010904/DTD/svg10.dtd">
<svg version="1.0" xmlns="http://www.w3.org/2000/svg"
 width="832.000000pt" height="598.000000pt" viewBox="0 0 832.000000 598.000000"
 preserveAspectRatio="xMidYMid meet">

<g transform="translate(0.000000,598.000000) scale(0.100000,-0.100000)"
fill="#000000" stroke="none">
<path d="M4920 5338 c0 -10 7 -18 15 -18 8 0 15 8 15 18 0 10 -7 19 -15 19 -8
0 -15 -9 -15 -19z"/>
<path d="M3970 5326 c0 -8 -6 -17 -12 -19 -8 -3 -6 -6 5 -6 11 -1 17 6 17 19
0 11 -2 20 -5 20 -3 0 -5 -6 -5 -14z"/>
<path d="M4495 5330 c3 -5 14 -10 23 -10 15 0 15 2 2 10 -20 13 -33 13 -25 0z"/>
<path d="M4975 5320 c-18 -8 -17 -9 8 -9 16 -1 26 3 22 9 -3 6 -7 10 -8 9 -1
0 -11 -4 -22 -9z"/>
<path d="M4578 5313 c7 -3 16 -2 19 1 4 3 -2 6 -13 5 -11 0 -14 -3 -6 -6z"/>
<path d="M4637 5308 c-7 -5 0 -8 20 -8 17 0 38 -3 47 -6 9 -3 16 -2 16 4 0 12
-66 21 -83 10z"/>
<path d="M5039 5306 c9 -11 9 -15 -1 -19 -7 -3 -3 -4 10 -4 30 2 31 37 1 37
-17 0 -19 -3 -10 -14z"/>
<path d="M3566 5301 c-3 -5 1 -11 9 -14 9 -4 12 -1 8 9 -6 16 -10 17 -17 5z"/>
<path d="M3850 5293 c0 -17 5 -19 28 -15 16 3 21 7 12 10 -8 3 -21 9 -27 15
-10 7 -13 4 -13 -10z"/>
<path d="M5082 5288 c2 -7 -9 -26 -25 -41 l-29 -28 5 28 6 28 -11 -25 c-16
-34 -15 -33 -29 -24 -19 12 -60 14 -54 3 4 -5 14 -9 24 -9 37 0 275 -116 406
-198 296 -186 510 -414 636 -679 49 -104 89 -210 89 -238 0 -55 54 48 70 134
6 29 10 78 10 109 0 47 -6 64 -45 126 -24 39 -57 85 -72 102 -76 84 -103 116
-103 122 0 21 -351 342 -374 342 -5 0 -13 6 -71 55 -14 11 -46 31 -72 45 -26
14 -50 28 -53 31 -11 15 -116 71 -135 73 -11 1 -26 5 -32 9 -6 4 -19 4 -29 0
-12 -4 -15 -3 -10 5 7 12 -7 21 -38 26 -8 1 -19 5 -22 9 -12 12 -46 8 -42 -5z
m63 -28 c3 -5 1 -10 -4 -10 -6 0 -11 5 -11 10 0 6 2 10 4 10 3 0 8 -4 11 -10z
m-56 -27 c-12 -15 -12 -16 4 -10 14 5 18 3 15 -11 -2 -12 -11 -16 -28 -14 -35
5 -36 9 -10 37 26 27 41 26 19 -2z m511 -233 c0 -5 -2 -10 -4 -10 -3 0 -8 5
-11 10 -3 6 -1 10 4 10 6 0 11 -4 11 -10z"/>
<path d="M4785 5280 c27 -12 43 -12 25 0 -8 5 -22 9 -30 9 -10 0 -8 -3 5 -9z"/>
<path d="M3606 5266 c3 -9 11 -16 16 -16 13 0 5 23 -10 28 -7 2 -10 -2 -6 -12z"/>
<path d="M3795 5270 c-3 -5 -1 -10 4 -10 6 0 11 5 11 10 0 6 -2 10 -4 10 -3 0
-8 -4 -11 -10z"/>
<path d="M4850 5270 c0 -5 5 -10 11 -10 5 0 7 5 4 10 -3 6 -8 10 -11 10 -2 0
-4 -4 -4 -10z"/>
<path d="M4960 5265 c7 -9 15 -13 17 -11 7 7 -7 26 -19 26 -6 0 -6 -6 2 -15z"/>
<path d="M4895 5261 c-19 -8 -19 -8 3 -15 13 -4 26 -5 29 -2 4 3 1 6 -6 6 -7
0 -9 5 -6 10 7 11 7 11 -20 1z"/>
<path d="M3512 5164 c-14 -16 -5 -18 17 -5 7 5 9 11 5 14 -5 3 -15 -1 -22 -9z"/>
<path d="M3470 5145 c-11 -13 -10 -14 4 -9 9 3 16 10 16 15 0 13 -6 11 -20 -6z"/>
<path d="M3390 5116 c0 -13 -5 -17 -20 -13 -11 3 -18 2 -15 -2 2 -4 -9 -18
-25 -30 -20 -14 -30 -17 -30 -9 -1 8 -7 5 -16 -7 -8 -11 -20 -20 -27 -21 -33
-3 -37 -5 -37 -19 0 -8 -5 -15 -11 -15 -5 0 -7 -5 -3 -12 4 -7 3 -8 -4 -4 -9
5 -9 13 -2 26 15 28 12 32 -10 13 -11 -10 -20 -29 -21 -43 l0 -25 -10 23 c-10
25 -29 21 -29 -6 0 -15 2 -15 10 -2 5 8 10 10 10 4 0 -5 -6 -18 -13 -29 -11
-14 -16 -15 -22 -5 -6 9 -4 11 6 5 12 -8 12 -6 0 8 -14 18 -26 23 -17 8 4 -5
0 -12 -6 -15 -10 -5 -10 -7 0 -12 6 -3 12 -11 12 -17 0 -5 -3 -7 -6 -4 -4 4
-15 -3 -25 -14 -10 -12 -20 -16 -24 -9 -3 5 -12 10 -18 10 -8 0 -8 -3 1 -9 8
-4 14 -10 15 -12 4 -9 -28 -37 -36 -32 -4 2 -10 -3 -13 -12 -5 -13 -9 -13 -23
-3 -14 11 -14 11 -4 -3 15 -19 5 -33 -13 -18 -8 7 -14 6 -20 -2 -4 -8 -3 -9 4
-5 7 4 12 3 12 -2 0 -6 -7 -12 -15 -16 -8 -3 -14 -11 -13 -18 2 -7 -4 -12 -12
-13 -8 -1 -14 -7 -12 -13 3 -17 -20 -40 -35 -35 -6 2 -15 -1 -19 -8 -4 -8 -3
-9 4 -5 7 4 12 2 12 -3 0 -6 -6 -11 -14 -11 -8 0 -17 -11 -20 -24 -5 -19 -11
-23 -28 -18 -14 3 -19 2 -14 -6 12 -19 -2 -14 -24 10 -16 18 -20 19 -20 5 0
-8 5 -19 10 -22 17 -10 11 -25 -10 -25 -11 0 -20 5 -20 11 0 5 5 7 10 4 11 -7
14 8 4 18 -10 9 -34 -4 -34 -19 0 -8 7 -26 16 -39 12 -19 13 -28 4 -42 -9 -14
-10 -15 -6 -1 2 9 -2 24 -10 35 -9 10 -12 12 -8 4 5 -11 3 -13 -12 -8 -16 6
-17 5 -4 -6 33 -28 23 -42 -29 -37 -18 1 -22 -2 -18 -14 3 -8 2 -18 -3 -21 -5
-3 -11 4 -15 15 -4 11 -11 17 -17 14 -7 -5 -9 2 -4 22 5 21 4 25 -4 14 -5 -8
-10 -25 -10 -37 0 -17 4 -21 17 -16 11 4 14 3 9 -5 -4 -7 -2 -12 4 -12 7 0 10
-6 7 -14 -7 -19 12 -36 31 -28 14 5 15 4 2 -10 -9 -9 -18 -12 -21 -6 -4 5 -9
3 -12 -6 -3 -8 -2 -16 3 -18 6 -2 6 -15 1 -33 l-8 -30 -8 35 c-4 19 -17 44
-28 54 -16 16 -17 21 -6 25 8 3 15 13 17 21 2 10 -6 6 -22 -9 -14 -14 -24 -27
-21 -29 3 -3 -3 -14 -12 -25 -16 -17 -16 -19 -2 -28 11 -6 15 -18 12 -36 -3
-21 -2 -24 5 -14 9 12 12 12 25 -1 13 -12 14 -23 5 -59 -14 -55 -26 -72 -50
-66 -21 6 -21 4 -6 -65 12 -55 28 -86 28 -54 0 42 56 198 106 296 119 233 376
495 670 681 56 35 70 49 63 60 -7 11 -9 10 -9 -5z m-700 -641 c0 -8 -4 -15
-10 -15 -5 0 -10 7 -10 15 0 8 5 15 10 15 6 0 10 -7 10 -15z m-30 -5 c0 -5 -4
-10 -10 -10 -5 0 -10 5 -10 10 0 6 5 10 10 10 6 0 10 -4 10 -10z m-76 -68 c2
-4 -4 -8 -14 -8 -10 0 -16 4 -14 8 3 4 9 8 14 8 5 0 11 -4 14 -8z m26 -47 c0
-21 -17 -27 -24 -9 -10 25 -7 34 9 28 8 -4 15 -12 15 -19z"/>
<path d="M3964 5059 c-16 -18 -20 -42 -25 -153 -11 -255 -10 -979 2 -1041 19
-104 60 -177 151 -273 169 -176 159 -109 158 -1019 l0 -742 62 -66 c60 -65
112 -102 122 -87 2 4 -1 32 -7 62 -9 39 -12 274 -12 800 0 682 2 752 18 821
20 86 56 148 130 222 26 26 47 51 47 55 0 5 14 22 31 40 17 17 45 66 62 109
l32 78 3 567 c3 619 2 630 -52 644 -36 9 -57 2 -78 -26 -18 -24 -19 -57 -26
-542 l-7 -516 -24 -26 c-38 -40 -91 -34 -116 14 -11 22 -15 125 -19 545 -4
471 -6 519 -22 536 -25 28 -75 25 -105 -7 l-24 -26 0 -525 -1 -525 -27 -24
c-48 -41 -100 -26 -134 39 -16 29 -18 84 -21 536 l-4 504 -24 24 c-29 29 -65
30 -90 2z"/>
<path d="M3152 5045 c0 -16 2 -22 5 -12 2 9 2 23 0 30 -3 6 -5 -1 -5 -18z"/>
<path d="M3105 5010 c-3 -5 -2 -10 4 -10 5 0 13 5 16 10 3 6 2 10 -4 10 -5 0
-13 -4 -16 -10z"/>
<path d="M3020 4919 c0 -5 5 -7 10 -4 6 3 10 8 10 11 0 2 -4 4 -10 4 -5 0 -10
-5 -10 -11z"/>
<path d="M5003 4865 c-32 -32 -35 -39 -28 -73 9 -51 31 -81 68 -97 75 -30 137
12 137 92 0 55 -12 78 -50 98 -49 25 -88 19 -127 -20z"/>
<path d="M3556 4877 c6 -17 -25 -45 -34 -31 -15 21 -40 13 -52 -16 -32 -78 47
-158 134 -136 34 8 69 68 61 104 -8 41 -59 92 -89 92 -17 0 -24 -4 -20 -13z
m33 -58 c-22 -14 -33 -10 -19 6 7 8 17 12 22 9 6 -4 5 -10 -3 -15z"/>
<path d="M2767 4697 c-3 -7 3 -13 14 -13 13 0 15 3 7 13 -6 7 -12 13 -13 13
-2 0 -5 -6 -8 -13z"/>
<path d="M2815 4670 c5 -9 1 -10 -16 -6 -21 6 -22 6 -6 -5 13 -7 22 -8 29 -1
6 6 6 12 -3 17 -8 6 -10 4 -4 -5z"/>
<path d="M2648 4553 c7 -3 16 -2 19 1 4 3 -2 6 -13 5 -11 0 -14 -3 -6 -6z"/>
<path d="M2571 4494 c0 -11 3 -14 6 -6 3 7 2 16 -1 19 -3 4 -6 -2 -5 -13z"/>
<path d="M3328 4453 c12 -2 32 -2 45 0 12 2 2 4 -23 4 -25 0 -35 -2 -22 -4z"/>
<path d="M3428 4445 c31 -14 46 -30 17 -19 -8 4 -15 1 -15 -5 0 -6 3 -10 8
-10 20 3 30 -3 35 -21 4 -16 0 -20 -20 -20 -22 0 -23 -1 -9 -16 9 -8 16 -21
16 -27 0 -8 -3 -8 -8 -2 -9 13 -27 13 -39 1 -5 -5 -2 -6 7 -2 8 4 5 -1 -7 -12
-12 -11 -20 -22 -17 -25 3 -3 3 -14 0 -25 -8 -23 -40 -34 -54 -20 -6 6 -17 0
-30 -16 -24 -31 -37 -34 -22 -6 13 25 5 40 -21 40 -16 0 -19 -4 -14 -21 5 -15
4 -19 -4 -15 -6 4 -11 14 -11 22 0 11 -4 10 -18 -3 -11 -10 -17 -21 -15 -25 2
-5 -3 -8 -11 -8 -9 0 -16 -2 -16 -5 0 -16 32 -64 62 -91 125 -118 318 -26 318
151 0 83 -47 159 -113 184 -42 16 -57 13 -19 -4z m-138 -199 c0 -3 -4 -8 -10
-11 -5 -3 -10 -1 -10 4 0 6 5 11 10 11 6 0 10 -2 10 -4z"/>
<path d="M5280 4450 c25 -4 39 -8 33 -8 -18 -3 -16 -22 6 -64 18 -35 18 -37 0
-41 -13 -4 -19 0 -20 11 0 10 -5 2 -10 -16 -6 -20 -14 -30 -21 -26 -7 5 -9 0
-6 -14 4 -13 1 -22 -5 -23 -7 -1 -16 -2 -22 -4 -5 -1 -20 -3 -32 -3 -12 -1
-29 -10 -39 -19 -10 -10 -19 -17 -21 -15 -13 10 -33 -2 -33 -19 0 -41 51 -108
102 -135 42 -22 126 -18 172 9 65 37 99 88 104 156 10 137 -66 223 -195 219
l-58 -1 45 -7z"/>
<path d="M2605 4430 c4 -6 11 -8 16 -5 14 9 11 15 -7 15 -8 0 -12 -5 -9 -10z"/>
<path d="M3340 4290 c-13 -9 -13 -11 0 -20 24 -16 53 -12 46 6 -3 9 -6 18 -6
20 0 8 -25 4 -40 -6z m30 -10 c0 -5 -4 -10 -10 -10 -5 0 -10 5 -10 10 0 6 5
10 10 10 6 0 10 -4 10 -10z"/>
<path d="M2377 4190 c-14 -37 -13 -46 5 -69 10 -13 15 -27 12 -30 -4 -3 -9 0
-11 7 -3 6 -9 12 -15 12 -6 0 -4 -8 5 -18 10 -10 17 -25 17 -33 0 -11 2 -12 9
-1 6 10 11 5 20 -19 20 -57 21 -25 2 37 -11 32 -24 75 -29 94 -6 22 -11 30
-15 20z"/>
<path d="M6271 4178 c-1 -9 -17 -55 -37 -103 -28 -66 -52 -103 -102 -158 -138
-152 -279 -237 -487 -297 -195 -55 -388 -121 -460 -157 -303 -152 -490 -369
-582 -673 l-37 -125 0 -290 c0 -159 4 -339 8 -398 9 -119 14 -122 61 -47 19
32 95 209 95 224 0 3 15 39 33 78 18 40 40 89 47 108 19 46 142 241 196 310
172 220 318 341 714 590 47 29 103 65 125 79 72 47 202 180 257 263 59 91 75
85 38 -15 -54 -145 -181 -283 -388 -425 -286 -195 -456 -341 -565 -485 -90
-119 -207 -324 -223 -392 l-7 -30 24 21 c27 25 79 57 198 126 85 49 183 88
391 158 63 21 144 52 180 69 132 63 135 24 5 -57 -63 -39 -163 -85 -280 -127
-209 -77 -384 -174 -467 -261 -29 -31 -65 -65 -80 -76 -26 -18 -27 -18 -21 -1
3 10 2 15 -2 11 -9 -8 -34 -73 -67 -173 -11 -33 -33 -96 -50 -140 -46 -121
-57 -169 -44 -177 36 -24 109 2 191 68 74 59 255 174 345 219 169 84 275 158
397 275 175 168 295 364 437 713 30 72 82 191 116 262 34 72 75 164 92 205 38
99 78 263 78 325 0 62 -18 238 -30 285 -11 47 -40 124 -48 130 -8 6 -33 54
-43 85 -5 15 -7 16 -8 3z m-1066 -787 c3 -5 1 -12 -5 -16 -5 -3 -10 1 -10 9 0
18 6 21 15 7z"/>
<path d="M5748 4163 c-34 -5 -78 -56 -78 -89 0 -64 55 -115 126 -117 51 0 78
19 94 68 26 79 -48 151 -142 138z"/>
<path d="M2814 4142 c-95 -76 -22 -221 95 -189 82 22 96 110 28 185 -25 27
-92 30 -123 4z"/>
<path d="M5024 3856 c-55 -55 -43 -125 26 -161 69 -36 133 -6 150 68 14 65
-39 127 -110 127 -23 0 -42 -10 -66 -34z"/>
<path d="M3517 3855 c-33 -34 -42 -85 -22 -124 19 -37 43 -51 87 -51 40 0 73
21 93 60 23 44 19 78 -14 111 -40 39 -106 41 -144 4z"/>
<path d="M6342 3152 c-46 -94 -81 -181 -97 -242 -37 -142 -106 -334 -155 -430
-92 -183 -249 -387 -411 -536 -203 -187 -393 -303 -656 -400 -57 -20 -101 -39
-99 -41 6 -6 236 -43 270 -43 19 0 53 7 77 15 68 24 269 146 317 192 7 7 46
37 85 67 117 88 347 336 347 374 0 7 4 12 9 12 5 0 24 24 42 53 18 28 36 54
40 57 12 10 145 264 160 305 3 11 13 38 22 60 33 87 39 104 37 107 -1 2 5 20
14 42 9 21 16 48 16 61 0 12 6 35 14 51 8 16 16 52 19 79 2 28 7 57 10 65 4 8
8 79 9 158 2 78 3 142 3 142 0 0 -33 -67 -73 -148z"/>
<path d="M2245 3208 c3 -40 5 -85 5 -99 0 -14 7 -59 16 -100 8 -41 18 -94 21
-119 3 -25 9 -49 14 -54 5 -6 9 -20 9 -32 0 -20 21 -97 39 -149 4 -11 22 -50
39 -86 18 -36 32 -71 32 -78 0 -6 5 -11 10 -11 6 0 10 -7 10 -15 0 -16 28 -76
39 -85 3 -3 15 -22 26 -42 11 -21 23 -38 27 -38 5 0 8 -4 8 -9 0 -14 92 -151
101 -151 5 0 9 -6 9 -12 0 -7 19 -33 41 -58 22 -25 52 -59 67 -76 87 -98 182
-192 232 -229 15 -11 54 -40 86 -65 73 -55 191 -133 241 -158 142 -72 190 -94
288 -129 265 -97 377 -117 640 -114 l60 1 -95 51 c-52 28 -111 66 -131 84 -31
28 -45 33 -87 33 -60 1 -135 19 -302 74 -156 51 -290 117 -440 218 -222 148
-332 251 -487 452 -152 195 -231 350 -322 624 -37 112 -84 231 -125 312 -36
73 -68 132 -71 132 -2 0 -2 -33 0 -72z"/>
<path d="M3830 3206 c0 -2 8 -10 18 -17 15 -13 16 -12 3 4 -13 16 -21 21 -21
13z"/>
<path d="M3870 3156 c0 -2 8 -10 18 -17 15 -13 16 -12 3 4 -13 16 -21 21 -21
13z"/>
<path d="M3960 3017 c12 -21 19 -44 16 -52 -3 -8 -1 -15 4 -15 6 0 9 -18 7
-40 -3 -33 -1 -38 11 -27 12 10 14 7 8 -21 -6 -27 -5 -31 8 -26 21 8 21 -19 0
-40 -22 -22 -37 -9 -30 26 3 16 2 27 -3 23 -5 -3 -17 2 -25 11 -20 20 -21 6
-1 -16 14 -15 13 -19 -9 -43 -14 -15 -29 -27 -34 -27 -14 0 -9 40 7 49 9 6 10
14 4 25 -8 15 -11 15 -28 0 -17 -13 -17 -15 -2 -10 18 6 24 -8 8 -18 -17 -11
-41 6 -41 27 0 21 0 21 -16 -1 -8 -12 -20 -19 -26 -16 -6 4 -5 10 3 16 10 7 6
8 -11 3 -14 -4 -36 -8 -50 -9 -17 -2 -26 -9 -28 -25 -3 -16 1 -22 10 -18 7 2
12 10 11 16 -2 6 6 11 17 11 11 0 20 -4 20 -10 0 -5 -6 -10 -13 -10 -8 0 -19
-12 -27 -27 -7 -16 -22 -46 -33 -67 -11 -21 -15 -36 -8 -32 8 6 10 0 5 -18 -5
-21 -3 -26 13 -26 14 0 19 -6 17 -22 -4 -35 -4 -35 -15 -8 -8 19 -12 21 -19
11 -5 -9 0 -27 16 -50 13 -20 43 -74 67 -121 217 -423 305 -567 315 -515 2 9
-1 84 -7 166 -6 82 -11 231 -11 331 0 191 -13 313 -34 301 -8 -4 -8 -3 0 6 8
9 7 26 -2 63 -21 79 -84 235 -101 249 -8 8 -6 -2 7 -24z m-94 -215 c3 -25 5
-27 14 -12 9 13 10 13 10 0 0 -15 -20 -52 -20 -37 0 5 -5 5 -10 2 -8 -5 -8
-11 0 -20 8 -9 6 -14 -6 -19 -24 -9 -27 -3 -12 29 10 23 10 29 0 33 -7 2 -9 9
-6 15 5 8 4 9 -4 2 -5 -5 -12 -19 -15 -30 -3 -13 -5 -9 -6 12 0 17 5 33 12 36
20 7 42 1 43 -11z m-86 -47 c0 -14 -4 -25 -9 -25 -4 0 -6 11 -3 25 2 14 6 25
8 25 2 0 4 -11 4 -25z m208 12 c7 -5 12 -3 12 5 0 10 2 10 9 -1 6 -9 11 -10
15 -2 10 16 26 14 26 -4 0 -8 -4 -15 -8 -15 -10 0 -8 -39 2 -62 14 -31 -6 -43
-21 -14 -10 18 -11 31 -5 39 11 13 -11 41 -22 30 -3 -4 -6 -1 -6 5 0 7 -5 12
-11 12 -6 0 -9 -7 -5 -15 3 -8 1 -15 -4 -15 -6 0 -10 8 -10 18 0 14 -2 15 -10
2 -11 -17 -13 -10 -4 13 6 16 20 17 42 4z m-58 -29 c0 -4 -4 -8 -9 -8 -6 0
-12 4 -15 8 -3 5 1 9 9 9 8 0 15 -4 15 -9z m-2 -30 c-2 -6 -10 -14 -18 -16 -8
-3 -10 0 -5 8 5 9 2 10 -15 5 -15 -5 -20 -4 -16 4 10 15 59 14 54 -1z m66 -3
c-4 -8 -14 -15 -23 -15 -14 1 -13 3 3 15 25 19 27 19 20 0z m-214 -3 c0 -5
-11 -14 -25 -20 -29 -13 -31 -10 -9 12 17 17 34 21 34 8z m40 -12 c0 -5 -4
-10 -10 -10 -5 0 -10 5 -10 10 0 6 5 10 10 10 6 0 10 -4 10 -10z m-10 -34 c0
-3 -4 -8 -10 -11 -5 -3 -10 -1 -10 4 0 6 5 11 10 11 6 0 10 -2 10 -4z m-29
-49 c-10 -9 -11 -8 -5 6 3 10 9 15 12 12 3 -3 0 -11 -7 -18z m59 -22 c0 -8 -4
-15 -10 -15 -5 0 -10 7 -10 15 0 8 5 15 10 15 6 0 10 -7 10 -15z m90 -11 c0
-8 -4 -14 -8 -14 -4 0 -8 9 -8 19 0 11 4 17 8 15 4 -3 8 -12 8 -20z m64 -58
c-3 -8 -13 -17 -22 -21 -13 -5 -13 -2 3 15 21 24 26 25 19 6z"/>
<path d="M3580 2960 c0 -5 5 -10 11 -10 5 0 7 5 4 10 -3 6 -8 10 -11 10 -2 0
-4 -4 -4 -10z"/>
<path d="M3795 2885 c-11 -13 -26 -24 -34 -25 -8 0 -12 -3 -9 -6 9 -8 78 7 78
18 0 5 -5 6 -11 2 -8 -4 -9 0 -4 15 8 27 5 26 -20 -4z"/>
<path d="M3684 2880 c0 -11 4 -20 8 -20 4 0 8 9 8 20 0 11 -4 20 -8 20 -4 0
-8 -9 -8 -20z"/>
<path d="M3515 2860 c-4 -6 -11 -7 -17 -4 -7 4 -8 2 -4 -5 6 -9 12 -9 24 1 10
7 19 14 21 15 2 2 -1 3 -7 3 -6 0 -14 -5 -17 -10z"/>
<path d="M3527 2837 c-16 -11 -13 -16 30 -57 26 -25 38 -33 25 -19 -12 14 -20
29 -17 32 3 4 2 5 -2 2 -3 -3 -15 2 -25 11 -17 16 -17 18 0 30 22 17 12 18
-11 1z"/>
<path d="M3660 2830 c0 -5 5 -10 10 -10 6 0 10 5 10 10 0 6 -4 10 -10 10 -5 0
-10 -4 -10 -10z"/>
<path d="M3936 2813 c-6 -14 -5 -15 5 -6 7 7 10 15 7 18 -3 3 -9 -2 -12 -12z"/>
<path d="M3696 2795 c-3 -8 -1 -15 3 -15 5 0 11 7 15 15 3 8 1 15 -3 15 -5 0
-11 -7 -15 -15z"/>
<path d="M3380 2771 c0 -5 7 -12 16 -15 14 -5 15 -4 4 9 -14 17 -20 19 -20 6z"/>
<path d="M3690 2750 c0 -5 6 -10 14 -10 8 0 18 5 21 10 3 6 -3 10 -14 10 -12
0 -21 -4 -21 -10z"/>
<path d="M3438 2709 c12 -14 20 -29 17 -32 -3 -4 -2 -5 2 -2 10 7 53 -56 53
-79 0 -15 3 -17 11 -9 13 13 -30 82 -77 123 l-29 25 23 -26z"/>
<path d="M3680 2721 c0 -6 4 -13 10 -16 6 -3 7 1 4 9 -7 18 -14 21 -14 7z"/>
<path d="M3105 2690 c-3 -5 -1 -10 4 -10 6 0 11 5 11 10 0 6 -2 10 -4 10 -3 0
-8 -4 -11 -10z"/>
<path d="M3320 2652 c0 -5 7 -9 15 -9 8 0 15 4 15 9 0 4 -7 8 -15 8 -8 0 -15
-4 -15 -8z"/>
<path d="M3225 2629 c-11 -16 -1 -19 13 -3 7 8 8 14 3 14 -5 0 -13 -5 -16 -11z"/>
<path d="M3290 2634 c0 -17 17 -36 24 -26 3 5 -1 15 -9 22 -8 7 -15 9 -15 4z"/>
<path d="M3171 2621 c-8 -6 -9 -11 -3 -15 6 -3 14 -1 17 5 9 14 2 20 -14 10z"/>
<path d="M3255 2620 c-8 -13 4 -50 16 -50 6 0 7 -5 4 -10 -4 -6 -11 -7 -17 -4
-6 4 -6 -2 1 -15 13 -24 0 -29 -21 -8 -7 8 -19 12 -25 10 -7 -3 -21 1 -32 7
-12 6 -21 7 -21 3 0 -5 30 -18 66 -31 120 -42 346 -158 411 -211 34 -28 64
-51 67 -51 7 0 -27 87 -51 131 -11 19 -32 57 -48 86 -15 29 -32 50 -38 46 -6
-3 -7 -1 -3 5 4 6 0 23 -9 36 -14 21 -20 23 -36 13 -18 -11 -18 -12 -1 -19 11
-4 12 -7 3 -7 -9 -1 -3 -11 15 -27 27 -24 27 -25 4 -13 -14 7 -32 13 -40 14
-10 0 -15 10 -15 28 1 15 -2 27 -5 27 -14 -1 -36 -26 -33 -37 3 -7 0 -13 -6
-13 -6 0 -12 5 -12 10 -1 6 -2 16 -3 23 -1 6 3 17 9 22 6 6 9 9 7 8 -2 -1 -15
2 -28 7 -15 6 -24 6 -24 0 0 -6 5 -10 10 -10 14 0 12 -64 -2 -79 -11 -10 -7
-17 17 -37 17 -14 23 -24 15 -22 -8 2 -18 7 -22 13 -4 5 -15 10 -24 10 -10 0
-19 6 -22 14 -3 8 0 11 7 7 7 -5 11 2 11 18 0 13 5 26 12 28 8 3 8 9 -1 24
-11 19 -11 19 -9 -1 2 -14 -2 -20 -14 -19 -10 1 -18 -3 -18 -8 0 -6 -7 -8 -15
-4 -8 3 -15 1 -15 -5 0 -15 -43 -6 -48 10 -3 9 0 12 11 8 10 -4 14 0 12 11 -2
9 -4 20 -4 25 -1 4 -8 7 -16 7 -18 0 -20 17 -3 22 9 3 9 6 1 11 -7 4 -14 3
-18 -3z m203 -127 c-2 -10 -10 -18 -18 -18 -8 0 -16 8 -18 18 -2 12 3 17 18
17 15 0 20 -5 18 -17z m27 -22 c3 -5 1 -12 -5 -16 -5 -3 -10 1 -10 9 0 18 6
21 15 7z"/>
<path d="M3329 2598 c-8 -15 -4 -45 5 -42 13 5 16 44 4 44 -4 0 -9 -1 -9 -2z"/>
<path d="M2981 2521 c-10 -6 -9 -10 4 -15 9 -3 21 -4 25 -1 16 10 22 -16 8
-32 -11 -14 -10 -15 12 -8 41 12 44 11 48 -12 4 -26 -10 -30 -27 -9 -13 15
-51 10 -51 -6 0 -6 11 -7 25 -4 14 4 25 2 25 -3 0 -5 -15 -11 -32 -13 -20 -2
-32 -8 -30 -15 1 -7 -2 -13 -8 -13 -5 0 -10 -9 -10 -20 0 -22 20 -26 38 -8 9
9 12 9 12 -3 0 -9 -11 -21 -25 -27 -29 -13 -33 -32 -7 -32 31 0 61 -89 41
-121 -13 -22 162 -176 184 -162 5 3 7 2 4 -4 -7 -12 165 -108 208 -116 6 -1
12 -5 15 -8 3 -3 43 -26 89 -50 47 -24 119 -72 160 -107 112 -95 194 -130 227
-97 15 14 15 18 1 33 -20 23 -82 150 -91 185 -3 15 -11 27 -16 27 -6 0 -10 9
-10 20 0 11 -4 20 -10 20 -5 0 -7 -8 -3 -17 8 -23 -1 -15 -16 14 -10 19 -9 22
4 17 18 -7 19 -5 1 37 -7 19 -11 40 -9 47 8 21 -46 104 -107 163 -58 57 -207
152 -290 185 -25 10 -69 30 -98 46 -62 32 -126 52 -116 36 5 -8 -1 -9 -17 -5
-13 4 -30 7 -36 7 -7 0 -13 5 -13 11 0 7 9 9 21 6 15 -4 19 -3 12 4 -6 6 -20
11 -32 12 -11 1 -21 5 -21 10 0 5 -6 4 -14 -2 -10 -9 -15 -8 -19 3 -8 21 -41
36 -56 27z m137 -119 c6 -18 -15 -14 -22 4 -4 10 -1 14 6 12 6 -2 14 -10 16
-16z m-73 -12 c3 -5 -1 -10 -9 -10 -9 0 -16 5 -16 10 0 6 4 10 9 10 6 0 13 -4
16 -10z m55 -32 c0 -16 -3 -19 -11 -11 -6 6 -8 16 -5 22 11 17 16 13 16 -11z
m-35 -57 c-3 -6 -11 -11 -16 -11 -5 0 -4 6 3 14 14 16 24 13 13 -3z m15 -86
c-7 -9 -15 -13 -17 -11 -7 7 7 26 19 26 6 0 6 -6 -2 -15z m20 -35 c24 -15 7
-18 -20 -3 -14 7 -18 13 -10 13 8 0 22 -4 30 -10z m-35 -21 c11 -17 -1 -21
-15 -4 -8 9 -8 15 -2 15 6 0 14 -5 17 -11z m116 -68 c7 11 9 10 9 -4 0 -20
-22 -19 -26 1 -2 9 -1 9 3 1 4 -8 8 -7 14 2z m186 -43 c-3 -8 -6 -5 -6 6 -1
11 2 17 5 13 3 -3 4 -12 1 -19z"/>
<path d="M2805 2500 c3 -5 8 -10 11 -10 2 0 4 5 4 10 0 6 -5 10 -11 10 -5 0
-7 -4 -4 -10z"/>
<path d="M2948 2482 c4 -12 1 -14 -12 -9 -15 6 -17 3 -13 -13 3 -11 1 -22 -4
-25 -10 -7 0 -35 13 -35 5 0 6 5 3 10 -3 6 1 10 9 10 10 0 13 6 10 15 -4 9 0
15 7 15 11 0 11 3 -1 10 -12 8 -11 10 6 10 11 0 21 6 21 14 0 7 -10 14 -23 14
-16 0 -21 -5 -16 -16z"/>
<path d="M2780 2456 c0 -2 7 -7 16 -10 8 -3 12 -2 9 4 -6 10 -25 14 -25 6z"/>
<path d="M2853 2453 c9 -2 25 -2 35 0 9 3 1 5 -18 5 -19 0 -27 -2 -17 -5z"/>
<path d="M2850 2380 c-9 -6 -10 -10 -3 -10 6 0 15 5 18 10 8 12 4 12 -15 0z"/>
<path d="M2860 2354 c0 -3 7 -12 15 -20 16 -17 18 -14 9 10 -6 15 -24 23 -24
10z"/>
<path d="M2910 2325 c0 -8 -5 -15 -12 -15 -6 0 1 -13 17 -30 29 -30 58 -43 35
-15 -19 23 13 20 33 -3 17 -19 14 -33 -6 -28 -7 2 -9 1 -4 -1 4 -3 5 -8 2 -13
-3 -4 2 -13 9 -19 12 -10 13 -8 9 10 -5 17 -3 21 9 16 12 -4 15 0 13 20 -3 29
-20 43 -54 43 -20 0 -22 4 -17 28 5 27 5 27 -9 -3 -14 -30 -19 -27 -16 8 1 9
0 17 -3 17 -3 0 -6 -7 -6 -15z"/>
<path d="M3856 1965 c5 -40 52 -158 87 -217 89 -150 327 -331 536 -408 115
-42 256 -63 395 -59 102 4 115 6 143 29 17 14 39 30 49 36 15 9 3 13 -61 23
-183 28 -491 118 -609 178 -28 14 -76 43 -106 64 -60 41 -274 246 -336 322
-24 28 -52 51 -71 56 -31 9 -31 9 -27 -24z"/>
</g>
</svg>
